<?xml version="1.0" encoding="utf-8"?>
<!-- Generator: Adobe Illustrator 27.0.0, SVG Export Plug-In . SVG Version: 6.00 Build 0)  -->
<svg version="1.1" id="Layer_1" xmlns="http://www.w3.org/2000/svg" xmlns:xlink="http://www.w3.org/1999/xlink" x="0px" y="0px"
	 viewBox="0 0 192.7 352.2" style="enable-background:new 0 0 192.7 352.2;" xml:space="preserve">
<style type="text/css">
	.st0{fill:#FFFFFF;}
</style>
<path class="st0" d="M115.5,294.2c-0.9,0.9-1.2,2.4-1.8,3.7c-0.6-0.5-1.2-0.9-1.8-1.4c0-1.5,0-2.9,0-4.3
	c0.1-90.3,0.1-180.5,0.2-270.8c0-2.5,0.1-5-0.2-7.5c-1-9.1-10-15.5-19-13.5c-8.2,1.8-12.7,7.9-12.7,17.4
	C80.1,109,80.1,200.3,80,291.6c0,1.5,0,3,0,5.5l0,0c-1.6-1.5-2.5-2.2-3.3-3.1"/>
<path d="M76.7,347.6c0.9,1,1.8,2,3.3,3.7v0c0-3,0-4.7,0-6.5c0-107.9,0.1-215.9,0.1-323.8c0-11.2,4.5-18.4,12.7-20.6
	c9-2.3,18,5.2,19,16c0.3,2.9,0.2,5.9,0.2,8.9c0,106.8-0.1,213.5-0.2,320.3c0,1.7,0,3.4,0,5.1c0.6,0.5,1.2,1.1,1.8,1.6
	c0.6-1.5,0.9-3.3,1.8-4.4"/>
</svg>
